# xmcd
#
# Track frame offsets:
#	150
#	18864
#	37920
#	50681
#	66621
#	81849
#	100315
#	114543
#	137573
#	159865
#	178588
#	185847
#	200184
#	216487
#	231829
#	244508
#	265344
#	291482
#
# Disc length: 4152 seconds
#
# Revision: 1
# Processed by: cddbd v1.5.2PL0 Copyright (c) Steve Scherf et al.
# Submitted via: audiograbber 1.83.01
#
DISCID=12103612
DTITLE=Andrew Gold - The Essential Collection CD 2
DYEAR=2011
DGENRE=Pop
TTITLE0=Right between the eyes
TTITLE1=Bridge to your heart
TTITLE2=Do wah diddy diddy
TTITLE3=Leave her alone
TTITLE4=Hang my picture straight
TTITLE5=Nine to five
TTITLE6=I'm coming home
TTITLE7=Genevieve
TTITLE8=Endless flight
TTITLE9=Passing thing
TTITLE10=Angel woman
TTITLE11=That's why i love you
TTITLE12=Looking for my love
TTITLE13=Still you linger on
TTITLE14=A note from you
TTITLE15=Always for you
TTITLE16=Ball and chain
TTITLE17=Don't play that song
EXTD=
EXTT0=
EXTT1=
EXTT2=
EXTT3=
EXTT4=
EXTT5=
EXTT6=
EXTT7=
EXTT8=
EXTT9=
EXTT10=
EXTT11=
EXTT12=
EXTT13=
EXTT14=
EXTT15=
EXTT16=
EXTT17=
PLAYORDER=
